# xmcd
#
# Track frame offsets:
#	150
#	27073
#	58000
#	86381
#	115539
#	142646
#	175258
#	199195
#	208454
#	212226
#	227577
#	238511
#	280111
#
# Disc length: 4078 seconds
#
# Revision: 0
# Processed by: cddbd v1.5.1PL2 Copyright (c) Steve Scherf et al.
# Submitted via: EasyCDDAExtractor 8.2.3.1
#
DISCID=ae0fec0d
DTITLE=Paul Barrere and Fred Tackett - River Street Jazz Cafe - Wilkes Barre, PA
DTITLE=12-14-02 disc 2
DYEAR=2002
DGENRE=Blues
TTITLE0=Skin It Back
TTITLE1=Clownin'
TTITLE2=All That You Dream
TTITLE3=Eula
TTITLE4=Old Folks Boogie
TTITLE5=Everything I Do Gone Be Funky ->
TTITLE6=Willin' ->
TTITLE7=Don't Bogart That Joint ->
TTITLE8=Willin'
TTITLE9=Dixie Chicken
TTITLE10=Tennessee Jed ->
TTITLE11=Dixie Chicken
TTITLE12=Feats Don't Fail Me Now
EXTD=
EXTT0=
EXTT1=
EXTT2=
EXTT3=
EXTT4=
EXTT5=
EXTT6=
EXTT7=
EXTT8=
EXTT9=
EXTT10=
EXTT11=
EXTT12=
PLAYORDER=
